<svg id="Layer_1" data-name="Layer 1" xmlns="http://www.w3.org/2000/svg" viewBox="0 0 107.7 216.5"><defs><style>.cls-1{fill:none;stroke:#000;stroke-linecap:round;stroke-linejoin:round;stroke-width:0.5px;}</style></defs><title>Artopolis Logo Square Dark</title><path d="M195,85.12V251.81H159l-.18-35.46H123.7v35.46H87.8V85.12c2.58-28.25,26.75-49.84,54.64-49.31C169.56,36.34,192.49,57.64,195,85.12ZM179.53,236.77V88.68a38.1,38.1,0,0,0-76.16,0V236.77h2.91V201.3h70.35v35.47Z" transform="translate(-87.55 -35.55)"/><path d="M176.63,88.68v109.8H106.28V88.68a35.21,35.21,0,0,1,70.35,0ZM159,180.46V88.68a17.64,17.64,0,0,0-35.25,0v91.78Z" transform="translate(-87.55 -35.55)"/><path class="cls-1" d="M87.8,85.12V251.81h35.9V216.35h35.07l.18,35.46H195V85.12c-2.51-27.48-25.44-48.78-52.56-49.31C114.55,35.28,90.38,56.87,87.8,85.12Z" transform="translate(-87.55 -35.55)"/><path class="cls-1" d="M123.7,180.46H159V88.68a17.64,17.64,0,0,0-35.25,0Z" transform="translate(-87.55 -35.55)"/><path class="cls-1" d="M106.28,201.3h70.35v35.47h2.9V88.68a38.1,38.1,0,0,0-76.16,0V236.77h2.91Z" transform="translate(-87.55 -35.55)"/><path class="cls-1" d="M176.63,198.48V88.68a35.21,35.21,0,0,0-70.35,0v109.8Z" transform="translate(-87.55 -35.55)"/></svg>